<svg width="480" height="535" viewBox="0 0 480 535" fill="none" xmlns="http://www.w3.org/2000/svg">
<rect width="535" height="535" transform="translate(-27.5)" fill="#3E55F9"/>
<rect x="65.3654" y="133.365" width="350.085" height="268.083" fill="#3E55F9"/>
<rect x="65.3654" y="133.365" width="350.085" height="268.083" stroke="white" stroke-width="4.73087"/>
<rect x="72.6085" y="139.195" width="335.599" height="256.425" fill="#3E55F9"/>
<rect x="72.6085" y="139.195" width="335.599" height="256.425" stroke="white" stroke-width="2.25322"/>
<path fill-rule="evenodd" clip-rule="evenodd" d="M282.185 282.145H281.242V282.461H280.615V282.778H280.3V357.879H280.615V360.096H280.928V361.682H281.242V362.95H281.556V364.217H281.87V365.167H282.185V366.118H282.499V366.751H282.813V367.386H283.126V368.02H283.442V368.653H283.755V369.288H284.069V369.605H284.383V370.238H284.698V370.554H285.012V371.189H285.326V371.506H285.639V371.822H285.955V372.14H286.268V372.457H286.582V372.773H286.896V373.09H287.525V373.408H287.839V373.725H288.153V374.041H288.781V374.358H289.095V374.676H289.723V374.992H290.352V375.309H291.294V375.626H291.922V375.944H292.864V376.26H294.121V376.577H296.005V376.893H301.972V376.577H303.229V376.26H303.856V375.944H304.799V375.626H305.428V375.309H305.741V374.992H306.369V374.676H306.683V374.358H307.312V374.041H307.625V373.725H307.939V373.408H308.254V373.09H308.882V372.773H309.196V372.457H309.511V372.14H309.825V371.506H310.139V371.189H310.452V370.873H310.767V370.554H311.081V370.238H311.395V369.605H311.709V369.288H312.024V368.653H312.338V368.02H312.652V367.702H312.965V367.386H313.279V375.624H313.594V375.942H313.908V376.259H314.536V376.575H317.048V376.892H323.33V376.575H324.9V376.259H325.215V375.942H325.529V283.413H325.215V283.095H324.9V282.778H324.586V282.461H323.33V282.145H313.908V282.461H313.279V282.778H312.965V283.095H312.652V354.077H312.338V355.979H312.024V356.928H311.709V357.88H311.395V358.513H311.081V358.831H310.767V359.464H310.452V359.781H310.139V360.415H309.825V360.732H309.511V361.048H309.196V361.367H308.568V361.683H308.254V362H307.939V362.316H307.312V362.634H306.683V362.951H306.369V363.267H305.428V363.584H304.485V363.901H303.543V364.219H301.344V364.535H298.833V364.219H297.577V363.901H296.947V363.584H296.634V363.267H296.318V362.951H296.005V362.634H295.691V362.316H295.377V362H295.063V361.367H294.748V360.732H294.435V359.781H294.121V359.147H293.807V357.88H293.492V355.979H293.178V283.413H292.864V282.778H292.55V282.462H291.921V282.145H290.351V281.827H282.186V282.145L282.185 282.145ZM134.889 160.144H134.262V160.462H133.948V161.095H133.633V162.679H133.319V166.166H133.633V167.433H133.948V168.066H134.262V168.383H134.576V168.701H143.997V169.018H144.94V169.334H145.254V169.651H145.569V170.602H145.883V265.034H146.196V265.35H146.51V265.667H147.766V265.983H153.734V265.667H154.99V265.35H155.618V265.034H155.932V264.715H156.245V170.285H156.561V169.65H156.875V169.017H158.131V168.701H167.866V168.383H168.181V167.749H168.495V161.412H168.181V160.462H167.866V160.144H167.238V159.827H134.89V160.144H134.889ZM348.766 160.144H348.137V160.462H347.823V161.095H347.509V162.363H347.194V166.482H347.509V167.75H347.823V168.066H348.137V168.383H348.451V168.701H357.558V169.018H358.815V169.334H359.13V169.969H359.444V170.92H359.758V265.034H360.071V265.35H360.385V265.667H361.641V265.983H367.609V265.667H368.865V265.35H369.493V265.034H369.808V264.399H370.122V169.969H370.436V169.334H370.75V169.017H372.006V168.701H381.742V168.383H382.056V167.749H382.37V161.412H382.056V160.778H381.742V160.462H381.427V160.144H381.113V159.827H348.766V160.144L348.766 160.144ZM207.752 281.827H206.496V282.145H205.553V282.461H204.611V282.778H203.983V283.095H203.356V283.413H202.727V283.729H202.099V284.046H201.47V284.362H201.156V284.679H200.529V284.997H200.214V285.314H199.586V285.63H199.271V285.947H198.957V286.265H198.643V286.582H198.33V286.898H198.014V287.215H197.701V287.533H197.387V287.849H197.073V288.166H196.759V288.483H196.444V289.117H196.13V289.434H195.817V290.068H195.503V290.702H195.188V288.166H194.874V282.78H194.56V282.463H194.246V282.146H192.047V281.828H189.849V282.146H183.567V282.463H182.94V283.096H182.626V375.309H182.94V375.944H183.253V376.26H184.196V376.577H186.08V376.893H192.361V376.577H194.247V376.26H194.874V375.944H195.188V375.626H195.503V306.229H195.817V304.644H196.131V303.694H196.444V303.059H196.76V302.426H197.073V301.791H197.387V301.475H197.701V301.158H198.015V300.525H198.33V300.207H198.644V299.891H198.957V299.574H199.271V299.256H199.586V298.939H200.214V298.623H200.529V298.306H200.843V297.988H201.47V297.672H201.784V297.355H202.413V297.038H203.041V296.722H203.67V296.404H204.297V296.087H205.24V295.771H205.869V295.454H207.125V295.136H209.009V294.819H210.579V294.503H210.893V293.552H211.207V286.581H211.522V284.996H211.207V282.145H210.893V281.826H210.579V281.51H207.753V281.826L207.752 281.827ZM269.622 160.144H268.679V160.462H268.365V160.779H268.052V161.095H267.738V161.412H267.424V161.729H267.109V162.363H266.795V264.082H267.109V264.715H267.424V265.35H268.052V265.667H268.994V265.983H296.945V265.667H297.574V265.35H297.888V264.083H298.202V259.012H297.888V258.061H297.574V257.745H297.259V257.428H296.631V257.111H278.416V256.793H277.473V256.477H277.159V255.844H276.846V215.599H277.159V214.965H277.473V214.649H278.416V214.331H288.78V214.014H289.407V213.698H289.721V213.381H290.036V212.43H290.35V207.36H290.036V206.409H289.721V205.776H289.094V205.459H279.043V205.141H278.101V204.824H277.787V204.508H277.473V204.191H277.159V202.607H276.846V201.972H277.159V169.968H277.473V169.649H277.787V169.333H278.101V169.016H279.672V168.7H297.259V168.382H297.574V168.065H297.888V167.115H298.202V162.045H297.888V160.778H297.574V160.461H297.259V160.143H296.945V159.826H269.622V160.143L269.622 160.144ZM111.335 160.144H109.138V160.462H107.881V160.779H106.939V161.095H106.31V161.412H105.369V161.729H104.74V162.046H104.426V162.363H103.798V162.68H103.483V162.996H102.856V163.314H102.542V163.631H102.227V163.948H101.913V164.264H101.599V164.582H101.285V164.899H100.97V165.215H100.656V165.532H100.343V165.85H100.029V166.167H99.7136V166.8H99.4V167.118H99.0861V167.751H98.7723V168.068H98.4571V168.702H98.1432V169.335H97.8297V170.286H97.5158V170.921H97.202V171.87H96.8868V173.138H96.5729V174.722H96.2593V188.982H96.5729V190.25H96.8868V191.518H97.202V192.468H97.5158V193.418H97.8297V194.369H98.1432V195.004H98.4571V195.955H98.7723V196.588H99.0861V197.221H99.4V197.856H99.7136V198.489H100.029V199.124H100.343V199.44H100.656V200.073H100.97V200.708H101.285V201.341H101.599V201.659H101.913V202.292H102.227V202.927H102.542V203.244H102.856V203.877H103.169V204.195H103.483V204.828H103.798V205.145H104.112V205.779H104.426V206.096H104.74V206.729H105.055V207.047H105.369V207.68H105.682V207.998H105.996V208.632H106.31V208.948H106.625V209.583H106.939V209.899H107.253V210.216H107.567V210.851H107.882V211.167H108.196V211.8H108.509V212.118H108.825V212.435H109.138V213.068H109.452V213.386H109.766V214.019H110.08V214.336H110.395V214.654H110.709V215.287H111.022V215.604H111.336V216.238H111.651V216.555H111.965V216.871H112.279V217.506H112.593V217.823H112.907V218.456H113.222V218.774H113.535V219.407H113.849V219.724H114.163V220.358H114.478V220.675H114.792V221.31H115.106V221.943H115.421V222.259H115.735V222.894H116.049V223.211H116.362V223.844H116.676V224.478H116.991V225.112H117.305V225.43H117.619V226.063H117.933V226.698H118.248V227.331H118.562V227.965H118.875V228.599H119.189V229.549H119.503V230.183H119.818V231.134H120.132V232.085H120.446V233.036H120.761V234.62H121.075V236.837H121.388V248.562H121.075V250.464H120.761V251.414H120.446V252.048H120.132V252.681H119.818V253H119.503V253.633H119.189V253.949H118.562V254.266H118.248V254.584H117.619V254.901H116.991V255.217H115.735V255.534H111.966V255.217H111.024V254.901H110.081V254.584H109.767V254.266H109.14V253.949H108.826V253.633H108.511V253.316H108.197V253H107.883V252.365H107.568V251.732H107.254V251.097H106.941V249.829H106.627V238.739H106.311V238.423H105.998V238.105H105.057V237.788H97.8327V238.105H96.8901V238.423H96.5763V239.056H96.2627V251.097H96.5763V253H96.8901V254.266H97.2053V255.217H97.5192V256.168H97.833V256.801H98.1466V257.435H98.4604V258.069H98.7756V258.703H99.0895V259.02H99.4033V259.654H99.7169V259.971H100.032V260.288H100.346V260.604H100.66V260.921H100.973V261.239H101.289V261.556H101.602V261.872H101.916V262.189H102.23V262.507H102.545V262.823H103.173V263.14H103.487V263.458H104.116V263.775H104.743V264.091H105.372V264.408H106V264.724H106.942V265.042H107.885V265.359H109.455V265.676H111.339V265.992H116.05V265.676H117.934V265.359H119.19V265.042H120.133V264.724H120.762V264.408H121.703V264.091H122.332V263.775H122.646V263.458H123.273V263.14H123.902V262.823H124.216V262.507H124.529V262.189H125.159V261.872H125.472V261.556H125.786V261.239H126.101V260.921H126.415V260.604H126.729V260.288H127.043V259.971H127.358V259.654H127.672V259.02H127.985V258.703H128.299V258.387H128.614V257.752H128.928V257.119H129.242V256.801H129.556V255.851H129.869V255.217H130.185V254.266H130.499V253.316H130.812V252.048H131.126V249.83H131.441V236.521H131.126V233.986H130.812V232.085H130.499V230.817H130.185V229.55H129.869V228.599H129.556V227.648H129.242V226.698H128.928V226.064H128.614V225.113H128.299V224.479H127.985V223.845H127.672V222.895H127.358V222.261H127.043V221.628H126.729V220.993H126.415V220.36H126.101V220.043H125.786V219.408H125.472V218.775H125.159V218.141H124.845V217.824H124.529V217.189H124.216V216.556H123.902V216.24H123.588V215.605H123.273V214.972H122.959V214.655H122.646V214.021H122.332V213.704H122.018V213.069H121.703V212.753H121.389V212.119H121.075V211.801H120.761V211.168H120.446V210.852H120.132V210.534H119.819V209.9H119.504V209.584H119.19V208.949H118.876V208.633H118.562V207.999H118.248V207.681H117.933V207.365H117.619V206.73H117.306V206.414H116.992V206.097H116.676V205.464H116.363V205.146H116.049V204.512H115.735V204.196H115.421V203.878H115.106V203.245H114.793V202.928H114.479V202.293H114.164V201.977H113.85V201.66H113.536V201.026H113.222V200.709H112.907V200.074H112.593V199.758H112.279V199.125H111.966V198.808H111.652V198.173H111.337V197.857H111.023V197.222H110.709V196.906H110.395V196.273H110.08V195.638H109.766V195.321H109.453V194.686H109.139V194.053H108.825V193.737H108.51V193.102H108.196V192.469H107.882V191.834H107.567V190.885H107.253V190.25H106.94V189.299H106.626V188.032H106.311V175.357H106.626V174.406H106.94V173.773H107.253V173.138H107.567V172.822H107.882V172.187H108.196V171.87H108.51V171.554H108.825V171.237H109.139V170.921H109.766V170.603H110.08V170.286H110.709V169.969H111.652V169.651H115.105V169.969H115.734V170.286H116.362V170.603H116.991V170.921H117.305V171.237H117.618V171.554H117.932V171.87H118.247V172.187H118.561V172.505H118.875V173.138H119.189V173.455H119.503V174.406H119.818V175.357H120.131V184.863H120.445V185.496H120.76V185.814H121.701V186.131H129.239V185.814H130.182V185.496H130.496V175.039H130.182V173.455H129.867V172.505H129.553V171.555H129.239V170.603H128.925V169.97H128.612V169.335H128.296V168.702H127.982V168.068H127.669V167.751H127.355V167.118H127.04V166.8H126.726V166.483H126.412V165.85H126.098V165.532H125.783V165.215H125.47V164.899H125.156V164.582H124.842V164.264H124.527V163.948H124.213V163.631H123.899V163.315H123.27V162.996H122.956V162.68H122.329V162.363H122.015V162.047H121.386V161.729H120.759V161.412H120.129V161.096H119.187V160.779H118.246V160.462H117.303V160.144H115.42V159.828H111.336V160.144L111.335 160.144ZM111.65 281.827H110.079V282.145H108.824V282.461H107.881V282.778H106.939V283.095H105.996V283.413H105.369V283.729H104.74V284.046H104.112V284.362H103.483V284.679H103.169V284.997H102.542V285.314H102.227V285.63H101.913V285.947H101.285V286.265H100.97V286.582H100.656V286.898H100.343V287.215H100.029V287.533H99.7136V287.849H99.4V288.166H99.0861V288.483H98.7723V288.801H98.4571V289.117H98.1432V289.434H97.8297V290.068H97.5158V290.385H97.202V290.702H96.8868V291.335H96.5729V291.969H96.2593V292.286H95.9455V292.921H95.6303V293.554H95.3164V294.189H95.0026V295.138H94.6874V295.773H94.3738V296.724H94.06V297.99H93.7461V299.257H93.4323V300.843H93.1173V303.378H92.8035V355.03H93.1173V357.247H93.4323V359.149H93.7461V360.417H94.06V361.368H94.3738V362.317H94.6874V363.268H95.0026V363.902H95.3164V364.536H95.6303V365.169H95.9455V365.804H96.2593V366.437H96.5729V367.072H96.8868V367.388H97.202V368.023H97.5158V368.34H97.8297V368.973H98.1432V369.291H98.4571V369.607H98.7723V369.924H99.0861V370.241H99.4V370.557H99.7136V370.875H100.029V371.192H100.343V371.509H100.656V371.825H100.97V372.143H101.285V372.46H101.599V372.776H102.227V373.093H102.542V373.411H103.169V373.728H103.483V374.044H104.112V374.361H104.74V374.679H105.369V374.995H105.996V375.312H106.939V375.629H107.881V375.947H108.824V376.263H110.079V376.58H111.964V376.896H119.5V376.58H121.386V376.263H122.642V375.947H123.898V375.629H124.841V375.312H125.468V374.995H126.411V374.679H127.038V374.361H127.667V374.044H127.981V373.728H128.61V373.411H129.238V373.093H129.551V372.776H129.865V372.46H130.494V372.143H130.808V371.825H131.122V371.509H131.437V371.192H131.751V370.875H132.065V370.557H132.378V370.241H132.693V369.924H133.007V369.291H133.321V368.973H133.635V368.656H133.95V368.023H134.264V367.705H134.578V367.072H134.891V366.437H135.207V365.804H135.52V365.169H135.834V364.536H136.148V363.585H136.462V362.636H136.777V361.685H137.091V360.417H137.404V358.833H137.718V356.931H138.033V351.227H137.718V350.911H137.091V350.593H125.47V350.911H125.156V353.128H124.843V355.346H124.527V356.614H124.214V357.565H123.9V358.198H123.586V358.833H123.271V359.466H122.957V359.782H122.643V360.417H122.33V360.734H122.016V361.05H121.701V361.368H121.387V361.685H120.759V362.001H120.13V362.318H119.501V362.636H118.874V362.953H117.617V363.269H113.535V362.953H111.965V362.636H111.336V362.318H110.708V362.001H110.079V361.685H109.765V361.368H109.138V361.05H108.824V360.734H108.509V360.417H108.195V359.782H107.881V359.466H107.566V358.833H107.252V358.198H106.939V357.565H106.625V356.614H106.31V355.346H105.996V353.128H105.682V304.328H105.996V302.427H106.31V301.476H106.625V300.526H106.939V299.892H107.252V299.257H107.566V298.941H107.881V298.307H108.195V297.989H108.509V297.356H108.824V297.039H109.138V296.723H109.452V296.405H109.765V296.088H110.079V295.772H110.708V295.455H111.022V295.137H111.651V294.82H112.278V294.504H112.906V294.187H114.162V293.871H116.675V294.187H118.246V294.504H118.874V294.82H119.502V295.137H120.13V295.455H120.444V295.772H120.76V296.088H121.073V296.405H121.387V296.723H121.701V297.039H122.016V297.356H122.33V297.673H122.644V298.307H122.957V298.624H123.271V299.257H123.586V299.892H123.9V300.843H124.214V301.792H124.528V303.06H124.843V305.278H125.157V307.497H125.47V307.814H126.099V308.13H128.926V308.447H134.579V308.13H136.777V307.814H137.718V307.497H138.034V302.11H137.718V300.208H137.405V298.94H137.091V297.673H136.777V296.723H136.462V295.772H136.148V295.138H135.834V294.188H135.52V293.553H135.207V292.92H134.892V292.602H134.578V291.969H134.264V291.334H133.95V291.018H133.635V290.385H133.321V290.068H133.007V289.75H132.694V289.433H132.378V288.8H132.065V288.482H131.751V288.166H131.437V287.849H131.122V287.532H130.808V287.214H130.495V286.898H130.181V286.581H129.552V286.265H129.238V285.947H128.924V285.63H128.61V285.313H127.981V284.997H127.667V284.679H127.039V284.362H126.411V284.046H125.782V283.729H125.154V283.412H124.525V283.094H123.898V282.778H122.955V282.461H122.014V282.144H120.758V281.826H119.187V281.51H111.65V281.826V281.827ZM239.786 281.827H237.902V282.145H236.646V282.461H235.703V282.778H234.761V283.095H234.133V283.413H233.19V283.729H232.563V284.046H231.934V284.362H231.62V284.679H230.993V284.997H230.679V285.314H230.05V285.63H229.736V285.947H229.421V286.265H228.793V286.582H228.48V286.898H228.164V287.215H227.85V287.533H227.537V287.849H227.223V288.166H226.909V288.483H226.594V288.801H226.28V289.117H225.967V289.75H225.653V290.068H225.337V290.385H225.024V291.018H224.71V291.335H224.396V291.969H224.081V292.603H223.767V293.237H223.453V293.872H223.14V294.505H222.825V295.456H222.511V296.089H222.197V297.04H221.883V298.308H221.568V299.575H221.254V301.476H220.94V304.645H220.627V353.445H220.94V356.614H221.254V358.515H221.568V359.783H221.883V361.05H222.197V362.001H222.511V362.952H222.825V363.586H223.14V364.536H223.453V365.17H223.767V365.804H224.081V366.438H224.396V366.754H224.71V367.389H225.024V367.705H225.337V368.34H225.653V368.657H225.967V368.973H226.28V369.608H226.594V369.924H226.909V370.241H227.223V370.558H227.537V370.876H227.85V371.192H228.164V371.509H228.48V371.825H228.793V372.143H229.421V372.46H229.736V372.777H230.05V373.093H230.679V373.411H230.993V373.728H231.62V374.044H231.934V374.361H232.563V374.679H233.19V374.996H234.133V375.312H234.761V375.629H235.703V375.947H236.646V376.264H237.902V376.58H239.786V376.897H247.324V376.58H249.209V376.264H250.779V375.947H251.72V375.629H252.662V375.312H253.605V374.996H254.232V374.679H254.861V374.361H255.489V374.044H256.118V373.728H256.432V373.411H257.061V373.093H257.374V372.777H258.002V372.46H258.316V372.143H258.631V371.825H258.945V371.509H259.259V371.192H259.572V370.876H259.888V370.558H260.202V370.241H260.515V369.924H260.829V369.608H261.144V368.973H261.458V368.657H261.772V368.34H262.085V367.705H262.401V367.072H262.714V366.754H263.028V366.121H263.342V365.488H263.657V364.537H263.971V363.902H264.285V362.953H264.599V362.001H264.912V360.734H265.227V359.466H265.541V357.566H265.855V354.712H266.169V351.544H265.855V351.227H265.541V350.911H264.912V350.593H253.607V350.911H252.978V354.079H252.664V355.981H252.351V356.931H252.037V357.882H251.722V358.515H251.408V359.15H251.094V359.466H250.78V360.1H250.467V360.418H250.151V360.734H249.837V361.051H249.524V361.369H249.21V361.685H248.581V362.002H248.267V362.319H247.638V362.637H246.697V362.953H245.441V363.27H241.357V362.953H240.102V362.637H239.159V362.319H238.53V362.002H237.903V361.685H237.589V361.369H237.275V361.051H236.96V360.734H236.646V360.418H236.333V360.1H236.017V359.783H235.703V359.15H235.39V358.515H235.076V357.882H234.761V357.247H234.447V356.298H234.133V355.03H233.82V303.06H234.133V301.793H234.447V300.843H234.761V300.209H235.076V299.575H235.39V298.941H235.703V298.624H236.017V297.99H236.333V297.673H236.646V297.04H236.96V296.723H237.275V296.405H237.589V296.089H238.217V295.772H238.53V295.455H238.846V295.137H239.473V294.821H240.102V294.504H240.73V294.188H242.3V293.871H244.812V294.188H246.069V294.504H246.698V294.821H247.325V295.137H247.954V295.455H248.268V295.772H248.896V296.089H249.211V296.405H249.524V296.723H249.838V297.356H250.152V297.673H250.467V297.99H250.781V298.624H251.095V299.257H251.408V299.892H251.722V300.527H252.038V301.476H252.351V302.744H252.665V304.328H252.979V307.498H253.294V307.814H254.235V308.131H256.748V308.448H262.402V308.131H264.913V307.814H265.542V307.498H265.856V306.863H266.17V304.011H265.856V301.476H265.542V299.575H265.228V298.308H264.913V297.357H264.599V296.406H264.286V295.456H263.972V294.822H263.658V294.189H263.343V293.554H263.029V292.921H262.715V292.286H262.401V291.653H262.086V291.335H261.773V290.702H261.459V290.385H261.145V290.068H260.83V289.434H260.516V289.117H260.202V288.801H259.888V288.483H259.573V288.166H259.259V287.849H258.945V287.533H258.632V287.215H258.317V286.898H258.003V286.582H257.689V286.265H257.375V285.947H256.746V285.63H256.433V285.314H256.119V284.997H255.49V284.679H254.862V284.362H254.548V284.046H253.92V283.729H253.292V283.413H252.663V283.095H251.72V282.778H250.779V282.461H249.837V282.145H248.58V281.827H247.01V281.51H239.786V281.827H239.786ZM357.872 282.145H355.988V282.461H354.732V282.778H353.79V283.095H352.848V283.413H351.906V283.729H351.277V284.046H350.65V284.362H350.02V284.679H349.707V284.997H349.079V285.314H348.765V285.63H348.136V285.947H347.823V286.265H347.509V286.582H347.194V286.898H346.88V287.215H346.566V287.533H346.252V287.849H345.937V288.166H345.623V288.483H345.31V288.801H344.996V289.434H344.681V289.75H344.367V290.068H344.053V290.702H343.739V291.335H343.424V291.653H343.11V292.286H342.797V293.237H342.483V293.872H342.169V294.505H341.854V295.456H341.54V296.405H341.226V297.673H340.912V298.941H340.597V300.843H340.283V305.279H339.97V305.595H340.283V309.398H340.597V311.3H340.912V312.25H341.226V313.517H341.54V314.468H341.854V315.102H342.169V315.736H342.483V316.687H342.797V317.32H343.11V317.637H343.424V318.272H343.739V318.905H344.053V319.223H344.367V319.856H344.681V320.173H344.996V320.807H345.31V321.124H345.623V321.441H345.937V321.757H346.252V322.392H346.566V322.708H346.88V323.025H347.194V323.343H347.509V323.66H347.823V323.976H348.136V324.293H348.45V324.611H348.765V324.927H349.079V325.244H349.393V325.561H349.707V325.879H350.02V326.195H350.336V326.512H350.65V326.828H350.963V327.146H351.277V327.463H351.592V327.78H352.22V328.096H352.535V328.413H352.849V328.731H353.163V329.048H353.476V329.364H354.105V329.681H354.419V329.999H354.733V330.315H355.047V330.632H355.362V330.95H355.989V331.267H356.303V331.583H356.617V331.9H357.246V332.216H357.56V332.534H357.873V332.851H358.189V333.168H358.816V333.484H359.131V333.802H359.445V334.119H359.759V334.435H360.073V334.752H360.386V335.068H361.016V335.387H361.329V335.703H361.643V336.02H361.958V336.338H362.272V336.654H362.586V336.971H362.9V337.288H363.213V337.606H363.529V337.922H363.842V338.239H364.156V338.555H364.471V338.872H364.785V339.507H365.099V339.823H365.413V340.14H365.728V340.458H366.042V341.091H366.355V341.408H366.669V342.042H366.983V342.359H367.298V342.993H367.612V343.627H367.926V344.261H368.239V344.894H368.555V345.529H368.868V346.479H369.182V347.43H369.496V348.697H369.811V350.916H370.125V354.717H369.811V356.936H369.496V358.203H369.182V359.154H368.868V359.787H368.555V360.104H368.239V360.739H367.926V361.055H367.612V361.373H367.298V361.69H366.669V362.006H366.355V362.323H365.728V362.641H364.785V362.958H363.529V363.274H359.133V362.958H357.875V362.641H357.247V362.323H356.618V362.006H355.991V361.69H355.677V361.373H355.363V361.055H355.048V360.739H354.734V360.104H354.42V359.787H354.107V359.154H353.792V358.52H353.478V357.252H353.164V355.668H352.85V352.816H352.536V352.5H351.907V352.183H349.709V351.865H344.684V352.183H341.23V352.5H340.287V352.816H339.974V353.133H339.66V358.203H339.974V360.104H340.287V361.689H340.601V362.64H340.916V363.59H341.23V364.541H341.544V365.174H341.857V366.125H342.173V366.758H342.487V367.076H342.8V367.71H343.114V368.344H343.428V368.661H343.743V368.978H344.057V369.612H344.371V369.929H344.684V370.245H344.999V370.562H345.313V370.88H345.627V371.197H345.941V371.513H346.256V371.83H346.57V372.148H346.884V372.464H347.513V372.781H347.827V373.098H348.14V373.416H348.769V373.732H349.397V374.049H349.71V374.365H350.34V374.683H351.28V375H351.91V375.317H352.852V375.633H353.793V375.951H355.049V376.268H356.62V376.584H359.447V376.901H362.901V376.584H365.414V376.268H366.984V375.951H367.926V375.633H368.869V375.317H369.811V375H370.439V374.683H371.068V374.365H371.695V374.049H372.324V373.732H372.952V373.416H373.266V373.098H373.895V372.781H374.208V372.464H374.522V372.148H375.151V371.83H375.465V371.513H375.779V371.197H376.092V370.88H376.408V370.562H376.721V370.245H377.035V369.929H377.351V369.612H377.664V369.295H377.978V368.661H378.292V368.344H378.606V368.028H378.921V367.393H379.234V367.076H379.548V366.442H379.862V365.809H380.177V365.492H380.491V364.541H380.805V363.906H381.119V363.273H381.432V362.322H381.748V361.373H382.061V360.104H382.375V358.519H382.689V356.302H383.004V350.915H382.689V348.062H382.375V346.478H382.061V344.894H381.748V343.943H381.432V342.675H381.119V341.726H380.805V341.091H380.491V340.14H380.177V339.507H379.862V338.872H379.548V338.239H379.234V337.606H378.921V336.971H378.606V336.338H378.292V336.02H377.978V335.387H377.664V334.752H377.351V334.435H377.035V334.119H376.721V333.484H376.408V333.168H376.092V332.535H375.779V332.216H375.465V331.9H375.151V331.583H374.836V331.267H374.522V330.632H374.208V330.315H373.895V329.999H373.581V329.681H373.266V329.364H372.952V329.048H372.638V328.731H372.324V328.413H372.009V328.096H371.695V327.78H371.381V327.463H371.068V327.147H370.753V326.829H370.439V326.512H370.125V326.196H369.811V325.879H369.496V325.561H369.182V325.244H368.555V324.928H368.239V324.611H367.926V324.293H367.612V323.976H367.298V323.66H366.983V323.343H366.355V323.025H366.042V322.709H365.728V322.392H365.413V322.075H365.099V321.757H364.471V321.441H364.156V321.124H363.842V320.808H363.529V320.491H363.213V320.173H362.9V319.856H362.272V319.54H361.958V319.223H361.643V318.905H361.329V318.589H361.016V318.272H360.702V317.955H360.386V317.637H360.073V317.321H359.759V317.004H359.445V316.688H359.131V316.37H358.816V316.053H358.503V315.736H358.189V315.42H357.873V315.102H357.56V314.785H357.246V314.468H356.932V314.152H356.617V313.517H356.303V313.201H355.989V312.884H355.676V312.249H355.362V311.933H355.047V311.3H354.733V310.665H354.419V310.032H354.105V309.397H353.79V308.446H353.476V307.18H353.163V301.791H353.476V300.525H353.79V299.891H354.105V298.94H354.419V298.307H354.733V297.989H355.047V297.355H355.362V297.039H355.676V296.722H355.989V296.404H356.303V296.088H356.617V295.771H356.932V295.454H357.56V295.136H358.189V294.82H358.816V294.503H360.701V294.187H361.329V294.503H363.213V294.82H363.842V295.136H364.471V295.454H364.785V295.771H365.412V296.088H365.727V296.404H366.041V296.722H366.355V297.355H366.669V297.672H366.982V298.307H367.298V298.94H367.612V299.574H367.925V300.525H368.239V301.791H368.554V304.961H368.868V305.595H369.182V305.913H369.811V306.229H371.381V306.546H380.489V306.229H381.43V305.913H381.745V305.595H382.059V303.378H381.745V300.842H381.43V299.257H381.116V297.989H380.802V297.039H380.489V296.089H380.175V295.138H379.859V294.188H379.546V293.553H379.232V292.92H378.918V292.286H378.603V291.969H378.289V291.334H377.975V290.701H377.661V290.385H377.348V289.75H377.033V289.433H376.719V289.117H376.405V288.8H376.09V288.482H375.776V287.849H375.462V287.532H375.149V287.214H374.833V286.898H374.519V286.581H373.892V286.265H373.578V285.947H373.263V285.63H372.949V285.313H372.322V284.997H372.006V284.679H371.379V284.362H370.75V284.046H370.436V283.729H369.494V283.412H368.866V283.094H367.924V282.778H366.981V282.461H365.726V282.144H363.841V281.826H357.873V282.144L357.872 282.145ZM177.289 160.144H176.032V160.462H175.403V160.779H175.089V161.412H174.776V250.774H175.089V252.358H175.403V253.625H175.719V254.576H176.032V255.526H176.346V256.161H176.66V256.794H176.974V257.428H177.289V257.745H177.602V258.38H177.916V258.696H178.23V259.329H178.545V259.647H178.859V259.964H179.173V260.281H179.487V260.597H179.8V260.914H180.116V261.232H180.429V261.548H180.743V261.865H181.057V262.182H181.372V262.5H181.686V262.816H182.315V263.133H182.629V263.451H183.256V263.768H183.885V264.084H184.513V264.401H185.142V264.717H185.769V265.035H187.025V265.352H187.968V265.668H190.165V265.985H194.877V265.668H196.762V265.352H198.017V265.035H199.273V264.717H199.902V264.401H200.845V264.084H201.472V263.768H202.101V263.451H202.415V263.133H203.043V262.816H203.358V262.5H203.986V262.182H204.299V261.865H204.613V261.548H204.928V261.232H205.242V260.914H205.556V260.597H205.871V260.281H206.185V259.647H206.499V259.329H206.812V259.013H207.128V258.38H207.441V257.745H207.755V257.112H208.069V256.477H208.383V255.844H208.698V254.893H209.011V253.625H209.325V252.041H209.639V248.555H209.954V161.729H209.639V160.779H209.325V160.462H208.698V160.144H207.128V159.828H202.103V160.144H200.846V160.462H200.217V160.779H199.903V248.238H199.59V250.457H199.275V251.09H198.961V251.725H198.647V252.358H198.333V252.993H198.018V253.309H197.704V253.626H197.39V253.942H197.077V254.259H196.448V254.577H195.82V254.894H195.191V255.21H193.935V255.527H190.481V255.21H189.225V254.894H188.596V254.577H187.968V254.259H187.655V253.942H187.025V253.626H186.712V253.309H186.397V252.675H186.083V252.358H185.769V251.725H185.455V250.774H185.142V249.823H184.826V161.729H184.512V161.096H184.199V160.779H183.885V160.462H182.942V160.144H181.686V159.828H177.29V160.144L177.289 160.144ZM245.44 248.555H245.124V249.189H244.811V249.822H244.497V250.457H244.183V251.09H243.869V251.407H243.554V251.725H243.24V252.358H242.927V252.675H242.613V252.993H242.298V253.309H241.67V253.626H241.355V253.942H241.041V254.259H240.413V254.577H239.785V254.894H239.157V255.21H238.215V255.527H236.644V255.845H232.248V255.527H231.619V255.21H231.305V254.894H230.991V253.626H230.678V172.187H230.991V171.237H231.305V170.602H231.933V170.286H239.471V170.602H240.413V170.921H241.041V171.237H241.669V171.554H241.983V171.87H242.297V172.187H242.612V172.505H242.926V172.821H243.24V173.138H243.554V173.455H243.869V174.089H244.183V174.406H244.496V175.039H244.81V175.99H245.124V176.625H245.439V178.526H245.753V247.289H245.439V248.557L245.44 248.555ZM222.826 160.144H222.199V160.462H221.885V160.779H221.57V161.096H221.256V161.729H220.942V162.996H220.628V262.498H220.942V264.083H221.256V264.716H221.57V265.034H221.885V265.35H222.199V265.667H222.826V265.984H236.959V265.667H239.158V265.35H240.414V265.034H241.671V264.716H242.613V264.399H243.554V264.083H244.183V263.766H244.811V263.449H245.44V263.131H246.068V262.815H246.381V262.498H247.01V262.18H247.324V261.863H247.953V261.547H248.267V261.23H248.58V260.912H248.894V260.596H249.21V260.279H249.523V259.962H249.837V259.646H250.151V259.328H250.466V259.011H250.78V258.695H251.093V258.378H251.407V257.743H251.721V257.427H252.036V256.792H252.35V256.476H252.664V255.842H252.978V255.524H253.293V254.891H253.607V254.256H253.921V253.623H254.234V252.99H254.549V252.039H254.863V251.088H255.177V249.821H255.491V247.92H255.806V177.889H255.491V175.67H255.177V174.086H254.863V172.818H254.549V171.867H254.234V170.918H253.921V170.283H253.607V169.649H253.293V169.016H252.978V168.381H252.664V168.064H252.35V167.431H252.036V167.114H251.721V166.796H251.407V166.48H251.093V166.163H250.78V165.847H250.466V165.529H250.151V165.212H249.837V164.895H249.523V164.579H249.21V164.261H248.894V163.944H248.267V163.628H247.953V163.311H247.324V162.993H246.696V162.676H246.068V162.36H245.44V162.043H244.811V161.725H243.87V161.409H243.241V161.092H241.984V160.775H240.728V160.459H239.158V160.141H236.959V159.824H222.826V160.141V160.144ZM307.623 160.144H306.681V160.462H306.367V160.779H306.053V264.399H306.367V265.034H306.681V265.35H306.996V265.667H308.252V265.983H313.905V265.667H315.161V265.35H315.475V265.034H315.789V264.399H316.104V201.339H316.418V200.389H317.36V201.023H317.674V201.973H317.988V203.241H318.301V204.509H318.617V205.776H318.93V207.36H319.244V208.628H319.558V209.896H319.872V211.163H320.187V212.431H320.501V213.698H320.815V214.966H321.128V216.234H321.443V217.501H321.757V218.769H322.071V220.036H322.386V221.304H322.7V222.571H323.014V223.838H323.328V225.105H323.641V226.373H323.957V227.64H324.27V228.908H324.584V230.176H324.898V231.443H325.213V232.711H325.527V234.295H325.841V235.563H326.154V236.83H326.468V238.098H326.783V239.365H327.097V240.95H327.411V242.217H327.726V243.485H328.04V244.752H328.354V246.338H328.668V247.604H328.983V248.872H329.296V250.139H329.61V251.725H329.924V252.992H330.238V254.258H330.553V255.844H330.867V257.112H331.181V258.379H331.494V259.647H331.81V260.913H332.123V261.864H332.437V262.815H332.751V263.45H333.065V263.766H333.38V264.399H333.694V264.716H334.007V265.034H334.323V265.351H334.95V265.667H335.893V265.984H339.033V265.667H339.975V265.351H340.289V265.034H340.603V264.399H340.918V262.499H341.232V161.729H340.918V160.779H340.603V160.463H340.289V160.145H339.033V159.828H333.694V160.145H332.437V160.463H332.124V160.779H331.81V161.096H331.495V218.451H331.181V219.718H330.867V220.037H330.238V219.402H329.925V218.769H329.611V217.818H329.297V216.55H328.983V215.283H328.668V214.015H328.354V212.747H328.04V211.48H327.727V210.212H327.412V208.945H327.098V207.677H326.784V206.41H326.469V205.142H326.155V203.874H325.841V202.608H325.527V201.339H325.214V200.072H324.898V198.806H324.584V197.538H324.271V196.27H323.957V195.003H323.642V193.735H323.328V192.467H323.014V191.2H322.701V189.932H322.387V188.665H322.072V187.397H321.758V186.13H321.444V184.545H321.129V183.278H320.815V182.01H320.501V180.743H320.187V179.475H319.872V178.208H319.559V176.94H319.245V175.672H318.931V174.405H318.617V173.137H318.302V171.869H317.988V170.602H317.674V169.334H317.361V168.067H317.045V166.799H316.732V165.85H316.418V164.582H316.104V163.631H315.789V162.996H315.475V162.363H315.161V161.729H314.848V161.412H314.532V161.096H314.219V160.779H313.905V160.462H313.276V160.144H312.021V159.828H307.623V160.144Z" fill="white"/>
<path fill-rule="evenodd" clip-rule="evenodd" d="M155.306 324.606H154.992V325.555H155.306V326.823H155.62V327.141H155.934V326.823H161.273V327.141H164.1V326.823H164.414V325.555H164.728V324.606H161.902V324.288H155.306V324.606H155.306ZM160.331 367.384H160.645V367.068H161.273V367.384H161.902V367.701H162.529V368.019H162.844V368.336H163.158V368.652H163.472V369.287H163.786V371.188H163.472V371.504H162.844V369.287H162.529V368.969H162.215V368.653H161.902V368.336H161.273V368.019H160.645V367.701H160.331V367.385V367.384ZM158.761 365.484H157.505V365.8H156.876V366.117H156.562V366.434H156.247V366.75H155.933V367.068H155.619V367.385H155.306V367.701H154.992V368.019H154.677V368.653H154.363V369.603H154.049V372.455H154.363V373.406H154.677V374.039H154.992V374.674H155.306V374.991H155.619V375.307H155.933V375.624H156.247V375.942H156.876V376.259H157.505V376.575H158.132V376.892H161.588V376.575H162.215V376.259H162.844V375.942H163.472V375.624H163.785V375.307H164.101V374.991H164.414V374.356H164.728V374.039H165.042V373.406H165.357V372.455H165.671V369.603H165.357V368.653H165.042V368.019H164.728V367.701H164.414V367.385H164.101V367.068H163.785V366.75H163.472V366.434H163.158V366.117H162.844V365.8H161.902V365.484H160.959V365.166H158.762V365.484H158.761ZM155.933 329.042H156.247V330.626H156.562V333.796H156.876V336.964H157.19V340.45H157.505V343.935H157.819V347.105H157.505V347.421H157.19V347.738H156.562V348.054H156.247V348.689H155.933V349.006H155.62V349.957H155.306V352.808H155.62V353.442H155.933V354.076H156.247V354.393H156.562V354.709H156.876V355.027H157.19V355.344H157.819V355.661H158.762V355.979H160.959V355.661H161.901V355.344H162.529V355.027H162.844V354.709H163.158V354.393H163.472V354.076H163.785V353.442H164.101V352.808H164.414V349.957H164.101V349.006H163.785V348.689H163.472V348.372H163.158V347.738H162.529V347.421H162.215V347.105H161.588V346.47H161.901V343.302H162.215V339.815H162.529V336.647H162.844V333.477H163.158V330.626H163.472V328.725H162.215V328.407H155.934V329.041L155.933 329.042ZM158.446 282.144H157.505V282.46H156.876V283.411H156.562V284.045H156.247V284.995H155.933V285.629H155.619V286.58H155.306V287.531H154.992V288.798H154.677V289.748H154.363V291.015H154.049V292.283H153.735V293.551H153.42V295.135H153.106V297.037H152.792V299.254H152.479V302.107H152.165V311.614H152.479V314.782H152.792V316.684H153.106V318.268H153.42V319.852H153.735V321.12H154.049V322.388H154.363V323.021H156.247V322.704H160.958V323.021H164.413V323.339H165.356V322.388H165.669V321.12H165.983V319.853H166.297V318.268H166.611V316.684H166.926V314.466H167.24V311.614H167.554V302.424H167.24V299.254H166.926V297.037H166.611V295.453H166.297V293.869H165.983V292.283H165.669V291.016H165.356V289.748H165.04V288.799H164.727V287.848H164.413V286.897H164.099V285.946H163.784V284.996H163.47V284.045H163.157V283.412H162.843V282.461H162.214V282.144H161.271V281.826H158.445V282.144L158.446 282.144Z" fill="white"/>
</svg>
